<svg width="2368" height="1637" xmlns="http://www.w3.org/2000/svg" xmlns:xlink="http://www.w3.org/1999/xlink" xml:space="preserve" overflow="hidden"><defs><clipPath id="clip0"><rect x="1191" y="290" width="2368" height="1637"/></clipPath></defs><g clip-path="url(#clip0)" transform="translate(-1191 -290)"><path d="M2509.07 1795.16C2498.8 1791.35 2493.56 1779.93 2497.38 1769.65L2804.14 944.046C2807.96 933.774 2819.38 928.541 2829.66 932.358L2829.66 932.358C2839.93 936.175 2845.16 947.596 2841.34 957.869L2534.58 1783.48C2530.76 1793.75 2519.34 1798.98 2509.07 1795.16Z" fill="#FAC748" fill-rule="evenodd"/><path d="M1532.89 1063.9C1532.24 1049.72 1543.21 1037.7 1557.39 1037.05L2729.97 983.408C2744.15 982.76 2756.17 993.728 2756.82 1007.91L2756.82 1007.91C2757.46 1022.09 2746.5 1034.11 2732.32 1034.75L1559.73 1088.4C1545.56 1089.05 1533.54 1078.08 1532.89 1063.9Z" fill="#FAC748" fill-rule="evenodd"/><path d="M1853.51 1578.83C1844.87 1564.24 1849.69 1545.42 1864.27 1536.78L2676.2 1055.78C2690.79 1047.14 2709.61 1051.96 2718.25 1066.55L2718.25 1066.55C2726.89 1081.13 2722.07 1099.95 2707.49 1108.59L1895.56 1589.59C1880.97 1598.23 1862.15 1593.41 1853.51 1578.83Z" fill="#FAC748" fill-rule="evenodd"/><path d="M1637.89 509.593C1643.53 496.57 1658.66 490.586 1671.68 496.228L2748.75 962.871C2761.77 968.514 2767.76 983.646 2762.11 996.669L2762.11 996.669C2756.47 1009.69 2741.34 1015.68 2728.32 1010.03L1651.25 543.391C1638.23 537.749 1632.24 522.617 1637.89 509.593Z" fill="#FAC748" fill-rule="evenodd"/><path d="M2826.87 1059.82C2837.97 1053.61 2851.99 1057.57 2858.2 1068.67L3126.79 1548.85C3132.99 1559.95 3129.03 1573.98 3117.93 1580.18L3117.93 1580.18C3106.83 1586.39 3092.8 1582.43 3086.6 1571.33L2818.01 1091.15C2811.81 1080.05 2815.77 1066.02 2826.87 1059.82Z" fill="#FAC748" fill-rule="evenodd"/><path d="M3446.5 333C3457.82 333 3467 342.178 3467 353.5L3467 608.5C3467 619.822 3457.82 629 3446.5 629L3446.5 629C3435.18 629 3426 619.822 3426 608.5L3426 353.5C3426 342.178 3435.18 333 3446.5 333Z" fill="#FAC748" fill-rule="evenodd"/><path d="M2491 1007.5C2491 834.911 2630.69 695 2803 695 2975.31 695 3115 834.911 3115 1007.5 3115 1180.09 2975.31 1320 2803 1320 2630.69 1320 2491 1180.09 2491 1007.5Z" fill="#FAC748" fill-rule="evenodd"/><path d="M2392 392.834C2392 368.073 2412.07 348 2436.83 348L3170.17 348C3194.93 348 3215 368.073 3215 392.834L3215 572.166C3215 596.927 3194.93 617 3170.17 617L2436.83 617C2412.07 617 2392 596.927 2392 572.166Z" fill="#FAC748" fill-rule="evenodd"/><path d="M2055 348C2055 325.356 2073.36 307 2096 307L3518 307C3540.64 307 3559 325.356 3559 348L3559 348C3559 370.644 3540.64 389 3518 389L2096 389C2073.36 389 2055 370.644 2055 348Z" fill="#FAC748" fill-rule="evenodd"/><path d="M3391 639.5C3391 608.848 3415.85 584 3446.5 584 3477.15 584 3502 608.848 3502 639.5 3502 670.152 3477.15 695 3446.5 695 3415.85 695 3391 670.152 3391 639.5Z" fill="#FAC748" fill-rule="evenodd"/><path d="M3045 1629C3045 1577.64 3086.64 1536 3138 1536 3189.36 1536 3231 1577.64 3231 1629 3231 1680.36 3189.36 1722 3138 1722 3086.64 1722 3045 1680.36 3045 1629Z" fill="#FAC748" fill-rule="evenodd"/><path d="M1496 1656.5C1496 1528.65 1599.65 1425 1727.5 1425 1855.35 1425 1959 1528.65 1959 1656.5 1959 1784.35 1855.35 1888 1727.5 1888 1599.65 1888 1496 1784.35 1496 1656.5Z" fill="#FAC748" fill-rule="evenodd"/><path d="M1368 466C1368 368.798 1446.8 290 1544 290 1641.2 290 1720 368.798 1720 466 1720 563.202 1641.2 642 1544 642 1446.8 642 1368 563.202 1368 466Z" fill="#FAC748" fill-rule="evenodd"/><path d="M1838.86 1520.36C1913.99 1581.86 1925.04 1692.63 1863.53 1767.77" stroke="#1D2F6F" stroke-width="30.9375" stroke-linecap="round" stroke-miterlimit="8" fill="none" fill-rule="evenodd"/><path d="M3193.92 1655.4C3179.57 1686.27 3142.92 1699.66 3112.05 1685.32" stroke="#1D2F6F" stroke-width="21.7708" stroke-linecap="round" stroke-miterlimit="8" fill="none" fill-rule="evenodd"/><path d="M1461.61 373.267C1514.83 327.596 1595 333.716 1640.67 386.936" stroke="#1D2F6F" stroke-width="30.9375" stroke-linecap="round" stroke-miterlimit="8" fill="none" fill-rule="evenodd"/><path d="M2567 1007.5C2567 875.78 2673.78 769 2805.5 769 2937.22 769 3044 875.78 3044 1007.5 3044 1139.22 2937.22 1246 2805.5 1246 2673.78 1246 2567 1139.22 2567 1007.5Z" fill="#1D2F6F" fill-rule="evenodd"/><path d="M1191 1062.5C1191 941.826 1288.83 844 1409.5 844 1530.17 844 1628 941.826 1628 1062.5 1628 1183.17 1530.17 1281 1409.5 1281 1288.83 1281 1191 1183.17 1191 1062.5Z" fill="#FAC748" fill-rule="evenodd"/><path d="M2355 1747.5C2355 1648.36 2435.36 1568 2534.5 1568 2633.64 1568 2714 1648.36 2714 1747.5 2714 1846.64 2633.64 1927 2534.5 1927 2435.36 1927 2355 1846.64 2355 1747.5Z" fill="#FAC748" fill-rule="evenodd"/><path d="M2650.36 1709.18C2671.51 1772.17 2637.59 1840.38 2574.6 1861.52" stroke="#1D2F6F" stroke-width="30.9375" stroke-linecap="round" stroke-miterlimit="8" fill="none" fill-rule="evenodd"/><path d="M1408.5 893.5C1502.39 893.5 1578.5 969.388 1578.5 1063" stroke="#1D2F6F" stroke-width="30.9375" stroke-linecap="round" stroke-miterlimit="8" fill="none" fill-rule="evenodd"/></g></svg>