<svg width="1928" height="1620" xmlns="http://www.w3.org/2000/svg" xmlns:xlink="http://www.w3.org/1999/xlink" xml:space="preserve" overflow="hidden"><defs><clipPath id="clip0"><rect x="1498" y="307" width="1928" height="1620"/></clipPath></defs><g clip-path="url(#clip0)" transform="translate(-1498 -307)"><path d="M2509.07 1795.16C2498.08 1791.08 2492.48 1778.86 2496.56 1767.87L2802.36 944.862C2806.45 933.873 2818.67 928.274 2829.66 932.358L2829.66 932.358C2840.64 936.441 2846.24 948.66 2842.16 959.649L2536.36 1782.66C2532.28 1793.65 2520.06 1799.25 2509.07 1795.16Z" fill="#FAC748" fill-rule="evenodd"/><path d="M1532.89 1063.9C1532.24 1049.72 1543.21 1037.7 1557.39 1037.05L2729.97 983.408C2744.15 982.76 2756.17 993.728 2756.82 1007.91L2756.82 1007.91C2757.46 1022.09 2746.5 1034.11 2732.32 1034.75L1559.73 1088.4C1545.56 1089.05 1533.54 1078.08 1532.89 1063.9Z" fill="#FAC748" fill-rule="evenodd"/><path d="M1853.51 1578.83C1844.87 1564.24 1849.69 1545.42 1864.27 1536.78L2676.2 1055.78C2690.79 1047.14 2709.61 1051.96 2718.25 1066.55L2718.25 1066.55C2726.89 1081.13 2722.07 1099.95 2707.49 1108.59L1895.56 1589.59C1880.97 1598.23 1862.15 1593.41 1853.51 1578.83Z" fill="#FAC748" fill-rule="evenodd"/><path d="M1834.52 594.788C1840.17 581.764 1855.3 575.781 1868.32 581.423L2748.75 962.871C2761.77 968.513 2767.76 983.645 2762.11 996.669L2762.11 996.669C2756.47 1009.69 2741.34 1015.68 2728.32 1010.03L1847.89 628.586C1834.87 622.943 1828.88 607.811 1834.52 594.788Z" fill="#FAC748" fill-rule="evenodd"/><path d="M2826.87 1059.82C2837.97 1053.61 2851.99 1057.57 2858.2 1068.67L3126.79 1548.85C3132.99 1559.95 3129.03 1573.98 3117.93 1580.18L3117.93 1580.18C3106.83 1586.39 3092.8 1582.43 3086.6 1571.33L2818.01 1091.15C2811.81 1080.05 2815.77 1066.02 2826.87 1059.82Z" fill="#FAC748" fill-rule="evenodd"/><path d="M2491 1007.5C2491 834.911 2630.69 695 2803 695 2975.31 695 3115 834.911 3115 1007.5 3115 1180.09 2975.31 1320 2803 1320 2630.69 1320 2491 1180.09 2491 1007.5Z" fill="#FAC748" fill-rule="evenodd"/><path d="M2392 392.834C2392 368.073 2412.07 348 2436.83 348L3170.17 348C3194.93 348 3215 368.073 3215 392.834L3215 572.166C3215 596.927 3194.93 617 3170.17 617L2436.83 617C2412.07 617 2392 596.927 2392 572.166Z" fill="#FAC748" fill-rule="evenodd"/><path d="M2188 348C2188 325.356 2206.36 307 2229 307L3385 307C3407.64 307 3426 325.356 3426 348L3426 348C3426 370.644 3407.64 389 3385 389L2229 389C2206.36 389 2188 370.644 2188 348Z" fill="#FAC748" fill-rule="evenodd"/><path d="M3349.5 333C3360.82 333 3370 342.178 3370 353.5L3370 608.5C3370 619.822 3360.82 629 3349.5 629L3349.5 629C3338.18 629 3329 619.822 3329 608.5L3329 353.5C3329 342.178 3338.18 333 3349.5 333Z" fill="#FAC748" fill-rule="evenodd"/><path d="M3294 639.5C3294 608.848 3318.85 584 3349.5 584 3380.15 584 3405 608.848 3405 639.5 3405 670.152 3380.15 695 3349.5 695 3318.85 695 3294 670.152 3294 639.5Z" fill="#FAC748" fill-rule="evenodd"/><path d="M3045 1629C3045 1577.64 3086.64 1536 3138 1536 3189.36 1536 3231 1577.64 3231 1629 3231 1680.36 3189.36 1722 3138 1722 3086.64 1722 3045 1680.36 3045 1629Z" fill="#FAC748" fill-rule="evenodd"/><path d="M1684 1538.5C1684 1410.65 1787.65 1307 1915.5 1307 2043.35 1307 2147 1410.65 2147 1538.5 2147 1666.35 2043.35 1770 1915.5 1770 1787.65 1770 1684 1666.35 1684 1538.5Z" fill="#FAC748" fill-rule="evenodd"/><path d="M2026.68 1402.49C2101.81 1464 2112.86 1574.77 2051.35 1649.9" stroke="#1D2F6F" stroke-width="30.9375" stroke-linecap="round" stroke-miterlimit="8" fill="none" fill-rule="evenodd"/><path d="M3193.92 1655.4C3179.57 1686.27 3142.92 1699.66 3112.05 1685.32" stroke="#1D2F6F" stroke-width="21.7708" stroke-linecap="round" stroke-miterlimit="8" fill="none" fill-rule="evenodd"/><path d="M1684 600C1684 502.798 1762.57 424 1859.5 424 1956.43 424 2035 502.798 2035 600 2035 697.202 1956.43 776 1859.5 776 1762.57 776 1684 697.202 1684 600Z" fill="#FAC748" fill-rule="evenodd"/><path d="M1776.9 507.099C1830.12 461.428 1910.28 467.547 1955.96 520.767" stroke="#1D2F6F" stroke-width="30.9375" stroke-linecap="round" stroke-miterlimit="8" fill="none" fill-rule="evenodd"/><path d="M2567 1007.5C2567 875.78 2673.78 769 2805.5 769 2937.22 769 3044 875.78 3044 1007.5 3044 1139.22 2937.22 1246 2805.5 1246 2673.78 1246 2567 1139.22 2567 1007.5Z" fill="#1D2F6F" fill-rule="evenodd"/><path d="M2355 1747.5C2355 1648.36 2435.36 1568 2534.5 1568 2633.64 1568 2714 1648.36 2714 1747.5 2714 1846.64 2633.64 1927 2534.5 1927 2435.36 1927 2355 1846.64 2355 1747.5Z" fill="#FAC748" fill-rule="evenodd"/><path d="M2650.36 1709.18C2671.51 1772.17 2637.59 1840.38 2574.6 1861.52" stroke="#1D2F6F" stroke-width="30.9375" stroke-linecap="round" stroke-miterlimit="8" fill="none" fill-rule="evenodd"/><path d="M1498 1054.5C1498 933.826 1595.83 836 1716.5 836 1837.17 836 1935 933.826 1935 1054.5 1935 1175.17 1837.17 1273 1716.5 1273 1595.83 1273 1498 1175.17 1498 1054.5Z" fill="#FAC748" fill-rule="evenodd"/><path d="M1715.5 885.5C1809.39 885.5 1885.5 961.612 1885.5 1055.5" stroke="#1D2F6F" stroke-width="30.9375" stroke-linecap="round" stroke-miterlimit="8" fill="none" fill-rule="evenodd"/></g></svg>